<svg width="101" height="242" viewBox="0 0 101 242" fill="none" xmlns="http://www.w3.org/2000/svg">
<mask id="path-1-inside-1_182_94" fill="white">
<path d="M53.4962 44.0047C53.4959 42.301 51.2276 42.2074 50.7722 43.8491C40.8263 79.7051 10.5944 80.9374 7.35929 138.889C17.0296 106.81 53.5025 80.6579 53.4962 44.0047Z"/>
<path d="M49.1738 26.9674C49.3147 25.1895 46.3686 24.7957 45.7082 26.4524C33.9996 55.8281 2.83775 70.591 0.181108 118.261C0.0813728 120.05 2.65177 120.306 3.13107 118.579C15.5892 73.687 46.0565 66.2893 49.1738 26.9674Z"/>
<path d="M41.0965 110.858C40.1861 109.802 38.3708 110.324 38.3195 111.717C37.1616 143.182 56.9668 133.339 66.601 147.81C67.5433 149.225 70.582 148.721 70.6006 147.021C70.9415 115.753 56.3404 128.544 41.0965 110.858Z"/>
<path d="M25.8727 11.4799C25.2835 10.8935 25.2835 9.93982 25.8727 9.35345L34.2133 1.05301C34.7985 0.470629 35.7443 0.47063 36.3295 1.05301L44.67 9.35345C45.2592 9.93982 45.2592 10.8935 44.67 11.4799L36.3295 19.7803C35.7443 20.3627 34.7985 20.3627 34.2133 19.7803L25.8727 11.4799Z"/>
<path d="M38.32 142.966C38.3712 141.573 40.1818 141.052 41.0836 142.116C56.3418 160.114 70.96 149.967 70.5999 181.745C70.5806 183.446 67.5807 183.936 66.6753 182.496C57.0677 167.224 37.1531 174.721 38.32 142.966Z"/>
<path d="M81.6968 150.369C81.1076 149.782 81.1076 148.829 81.6968 148.242L90.0374 139.942C90.6226 139.36 91.5684 139.36 92.1536 139.942L100.494 148.242C101.083 148.829 101.083 149.782 100.494 150.369L92.1536 158.669C91.5684 159.252 90.6226 159.252 90.0374 158.669L81.6968 150.369Z"/>
<path d="M81.6968 188.563C81.1076 187.977 81.1076 187.023 81.6968 186.437L90.0374 178.136C90.6226 177.554 91.5684 177.554 92.1536 178.136L100.494 186.437C101.083 187.023 101.083 187.977 100.494 188.563L92.1536 196.864C91.5684 197.446 90.6226 197.446 90.0374 196.864L81.6968 188.563Z"/>
<path d="M81.6968 212.869C81.1076 212.282 81.1076 211.329 81.6968 210.742L90.0374 202.442C90.6226 201.86 91.5684 201.86 92.1536 202.442L100.494 210.742C101.083 211.329 101.083 212.282 100.494 212.869L92.1536 221.169C91.5684 221.752 90.6226 221.752 90.0374 221.169L81.6968 212.869Z"/>
<path d="M67.7377 214.51C68.5418 215.747 70.5568 215.38 70.6571 213.907C73.7736 168.166 24.2372 189.279 7.35929 138.889C14.0298 208.592 49.3949 186.28 67.7377 214.51Z"/>
<path d="M65.4021 240.542C66.5364 241.86 70.18 241.022 70.0033 239.292C65.4458 194.676 9.9561 217.105 0.190325 145.833C0.190325 225.225 48.9071 221.372 65.4021 240.542Z"/>
</mask>
<path d="M7.35929 138.889L1.36862 138.554C1.35176 138.856 1.35776 139.159 1.38658 139.46L7.35929 138.889ZM0.190325 145.833L6.13478 145.019C5.70644 141.893 2.93008 139.633 -0.217884 139.847C-3.36584 140.062 -5.80968 142.678 -5.80968 145.833H0.190325ZM70.0033 239.292L64.0344 239.902L70.0033 239.292ZM65.4021 240.542L69.9502 236.628L65.4021 240.542ZM70.6571 213.907L64.671 213.5L70.6571 213.907ZM67.7377 214.51L62.7066 217.779L67.7377 214.51ZM90.0374 221.169L94.2698 216.916L90.0374 221.169ZM92.1536 221.169L87.9212 216.916L92.1536 221.169ZM81.6968 210.742L77.4644 206.489L81.6968 210.742ZM90.0374 202.442L85.805 198.189L90.0374 202.442ZM92.1536 202.442L87.9212 206.695L92.1536 202.442ZM100.494 188.563L104.727 192.816L100.494 188.563ZM100.494 186.437L96.2617 190.69L100.494 186.437ZM90.0374 196.864L94.2698 192.611L90.0374 196.864ZM92.1536 196.864L96.386 201.117L92.1536 196.864ZM81.6968 186.437L85.9292 190.69L81.6968 186.437ZM81.6968 188.563L77.4644 192.816L81.6968 188.563ZM90.0374 178.136L94.2698 182.389L90.0374 178.136ZM92.1536 178.136L87.9212 182.389L92.1536 178.136ZM100.494 150.369L96.2617 146.116L100.494 150.369ZM100.494 148.242L104.727 143.989L100.494 148.242ZM90.0374 158.669L94.2698 154.416L90.0374 158.669ZM92.1536 158.669L87.9212 154.416L92.1536 158.669ZM81.6968 148.242L77.4644 143.989L81.6968 148.242ZM90.0374 139.942L85.805 135.689L90.0374 139.942ZM92.1536 139.942L87.9212 144.195L92.1536 139.942ZM41.0836 142.116L36.5069 145.996L41.0836 142.116ZM44.67 11.4799L40.4376 7.22703L44.67 11.4799ZM44.67 9.35345L40.4376 13.6063L44.67 9.35345ZM34.2133 19.7803L29.9809 24.0332L34.2133 19.7803ZM36.3295 19.7803L40.5619 24.0332L36.3295 19.7803ZM25.8727 11.4799L21.6403 15.7327L25.8727 11.4799ZM34.2133 1.05301L29.9809 -3.19985L34.2133 1.05301ZM36.3295 1.05301L40.5619 -3.19985L36.3295 1.05301ZM41.0965 110.858L36.5517 114.775L41.0965 110.858ZM3.13107 118.579L-2.65043 116.974L3.13107 118.579ZM49.1738 26.9674L55.155 27.4415L49.1738 26.9674ZM66.601 147.81L71.5954 144.485L66.601 147.81ZM70.6006 147.021L76.6002 147.086L70.6006 147.021ZM70.5999 181.745L76.5995 181.813L70.5999 181.745ZM66.6753 182.496L61.5967 185.691L66.6753 182.496ZM100.494 212.869L96.2617 208.616L100.494 212.869ZM100.494 210.742L104.727 206.489L100.494 210.742ZM50.7722 43.8491L44.9905 42.2454L50.7722 43.8491ZM53.4962 44.0047L47.4962 44.0058L53.4962 44.0047ZM44.9905 42.2454C40.4233 58.7109 31.5786 66.6333 21.7837 79.4377C11.9397 92.3062 3.06127 108.233 1.36862 138.554L13.35 139.223C14.8924 111.593 22.7475 97.9282 31.3148 86.7287C39.931 75.4651 51.1753 64.8434 56.5539 45.4529L44.9905 42.2454ZM40.1347 24.2309C37.4802 30.8906 33.6745 36.8487 29.1972 42.9291C26.9523 45.9777 24.5908 48.989 22.1252 52.1537C19.6802 55.2918 17.1501 58.5593 14.6801 61.9918C4.67156 75.9001 -4.39769 92.5921 -5.8096 117.927L6.17181 118.595C7.41654 96.2596 15.2565 81.7353 24.4203 69.0009C26.7433 65.7727 29.1477 62.6652 31.5913 59.5288C34.0143 56.4188 36.4955 53.2557 38.8601 50.0445C43.6017 43.6052 48.0819 36.7021 51.2818 28.6739L40.1347 24.2309ZM32.3235 111.497C32.0142 119.902 33.0644 126.299 35.5174 131.257C38.0606 136.397 41.7967 139.36 45.5384 141.403C47.3306 142.381 49.1672 143.171 50.7711 143.851C52.4529 144.564 53.8781 145.157 55.262 145.852C57.8965 147.175 59.9691 148.675 61.6067 151.135L71.5954 144.485C68.4158 139.709 64.4 137.013 60.6476 135.128C58.838 134.22 56.9951 133.456 55.4559 132.803C53.8386 132.117 52.5012 131.532 51.2881 130.87C49.0189 129.631 47.4186 128.251 46.273 125.935C45.0371 123.437 44.0458 119.265 44.3154 111.938L32.3235 111.497ZM47.4962 44.0058C47.499 60.3415 39.3915 74.7021 29.1007 89.7796C19.1824 104.311 6.79726 119.965 1.61463 137.157L13.1039 140.621C17.5916 125.734 28.278 112.272 39.0122 96.5444C49.3739 81.3629 59.4997 64.3211 59.4962 44.0037L47.4962 44.0058ZM43.1925 26.4932C41.78 44.3106 34.3419 54.807 24.9076 67.0156C15.3783 79.3471 3.93033 93.261 -2.65043 116.974L8.91257 120.183C14.7899 99.0046 24.8047 86.7738 34.4029 74.3531C44.0961 61.8095 53.4502 48.9461 55.155 27.4415L43.1925 26.4932ZM29.9809 -3.19985L21.6403 5.10059L30.1051 13.6063L38.4457 5.30587L29.9809 -3.19985ZM21.6403 15.7327L29.9809 24.0332L38.4457 15.5275L30.1051 7.22702L21.6403 15.7327ZM40.5619 24.0332L48.9024 15.7327L40.4376 7.22703L32.0971 15.5275L40.5619 24.0332ZM48.9024 5.1006L40.5619 -3.19985L32.0971 5.30587L40.4376 13.6063L48.9024 5.1006ZM36.5517 114.775C45.152 124.753 54.9677 127.073 58.8835 129.148C60.7866 130.156 61.926 131.166 62.804 133.123C63.8375 135.426 64.6826 139.465 64.6009 146.955L76.6002 147.086C76.689 138.943 75.8368 132.855 73.7521 128.21C71.512 123.218 68.1122 120.458 64.5022 118.545C57.3917 114.777 52.2849 114.649 45.6413 106.941L36.5517 114.775ZM36.5069 145.996C40.8511 151.12 45.1884 154.266 49.1288 156.597C51.0401 157.727 52.89 158.682 54.4199 159.49C56.0161 160.334 57.2704 161.021 58.3658 161.752C60.3509 163.079 61.7201 164.482 62.7345 166.955C63.8548 169.686 64.6863 174.091 64.6003 181.677L76.5995 181.813C76.6936 173.511 75.8329 167.267 73.8367 162.401C71.7346 157.276 68.5632 154.133 65.0315 151.774C63.3684 150.663 61.6203 149.723 60.0259 148.88C58.3654 148.003 56.8368 147.214 55.2376 146.268C52.157 144.446 48.9452 142.111 45.6603 138.236L36.5069 145.996ZM32.324 142.746C32.0114 151.253 33.0798 157.768 35.4626 162.913C37.9061 168.189 41.4803 171.483 45.1395 173.911C46.9064 175.084 48.7206 176.072 50.3424 176.94C52.0329 177.845 53.4899 178.607 54.9156 179.472C57.6504 181.131 59.8632 182.936 61.5967 185.691L71.754 179.302C68.6837 174.421 64.8042 171.435 61.1393 169.212C59.3653 168.136 57.5455 167.184 56.005 166.36C54.3958 165.499 53.0249 164.742 51.7749 163.913C49.4003 162.337 47.6142 160.596 46.3516 157.87C45.0285 155.013 44.0451 150.557 44.3159 143.186L32.324 142.746ZM85.805 135.689L77.4644 143.989L85.9292 152.495L94.2698 144.195L85.805 135.689ZM77.4644 154.622L85.805 162.922L94.2698 154.416L85.9292 146.116L77.4644 154.622ZM96.386 162.922L104.727 154.622L96.2617 146.116L87.9212 154.416L96.386 162.922ZM104.727 143.989L96.386 135.689L87.9212 144.195L96.2617 152.495L104.727 143.989ZM85.805 173.883L77.4644 182.184L85.9292 190.69L94.2698 182.389L85.805 173.883ZM77.4644 192.816L85.805 201.117L94.2698 192.611L85.9292 184.31L77.4644 192.816ZM96.386 201.117L104.727 192.816L96.2617 184.31L87.9212 192.611L96.386 201.117ZM104.727 182.184L96.386 173.883L87.9212 182.389L96.2617 190.69L104.727 182.184ZM85.805 198.189L77.4644 206.489L85.9292 214.995L94.2698 206.695L85.805 198.189ZM77.4644 217.122L85.805 225.422L94.2698 216.916L85.9292 208.616L77.4644 217.122ZM96.386 225.422L104.727 217.122L96.2617 208.616L87.9212 216.916L96.386 225.422ZM104.727 206.489L96.386 198.189L87.9212 206.695L96.2617 214.995L104.727 206.489ZM76.6433 214.315C77.5 201.74 74.7536 192.804 69.0202 186.081C63.5948 179.72 55.9735 176.015 49.0925 172.728C41.8833 169.283 34.9371 166.08 28.6548 160.832C22.5337 155.718 16.9136 148.522 13.0486 136.983L1.66995 140.795C6.24393 154.45 13.1451 163.512 20.9616 170.041C28.6169 176.436 37.0246 180.261 43.9196 183.555C51.1429 187.006 56.3763 189.749 59.8899 193.868C63.0955 197.627 65.3725 203.204 64.671 213.5L76.6433 214.315ZM1.38658 139.46C3.09937 157.358 6.70043 169.929 11.7863 179.061C16.9627 188.354 23.4751 193.721 30.2526 197.494C33.5556 199.333 36.9019 200.783 40.0074 202.088C43.1963 203.428 46.0549 204.586 48.8433 205.965C54.2262 208.627 58.8886 211.903 62.7066 217.779L72.7689 211.241C67.4155 203.002 60.7787 198.481 54.1633 195.209C50.9525 193.621 47.6372 192.277 44.6559 191.025C41.5913 189.737 38.7712 188.503 36.0902 187.01C30.8997 184.12 26.1738 180.231 22.2699 173.222C18.2755 166.05 14.9545 155.271 13.332 138.317L1.38658 139.46ZM75.9722 238.683C74.6757 225.99 69.6148 217.649 62.5132 211.389C55.898 205.557 47.2598 201.449 40.0088 197.339C32.423 193.039 25.2484 188.24 19.3285 180.565C13.4373 172.928 8.46211 162.004 6.13478 145.019L-5.75413 146.648C-3.19857 165.298 2.42464 178.298 9.82675 187.894C17.2002 197.454 26.014 203.2 34.091 207.778C42.5028 212.547 49.202 215.651 54.5781 220.39C59.4678 224.701 63.0521 230.287 64.0344 239.902L75.9722 238.683ZM-5.80968 145.833C-5.80968 186.996 6.94224 207.76 22.8696 220.462C30.5393 226.578 38.748 230.646 45.4896 234.146C52.5522 237.812 57.6094 240.684 60.8541 244.455L69.9502 236.628C64.9473 230.814 57.7293 226.979 51.0183 223.495C43.9863 219.845 36.9229 216.32 30.3515 211.08C17.7968 201.067 6.19032 184.062 6.19032 145.833H-5.80968ZM64.0344 239.902C63.8321 237.922 64.8433 236.539 65.5033 235.944C66.088 235.418 66.5834 235.279 66.7223 235.243C66.8982 235.199 67.1698 235.157 67.5736 235.221C67.9136 235.276 68.9962 235.519 69.9502 236.628L60.8541 244.455C62.3753 246.223 64.3386 246.856 65.6753 247.07C67.0758 247.295 68.4599 247.182 69.6664 246.877C70.8359 246.581 72.2799 245.99 73.5335 244.861C74.8624 243.665 76.2629 241.528 75.9722 238.683L64.0344 239.902ZM64.671 213.5C64.8372 211.06 66.746 209.644 68.3039 209.338C69.7647 209.05 71.6637 209.54 72.7689 211.241L62.7066 217.779C64.6159 220.718 67.9245 221.642 70.6188 221.112C73.4103 220.563 76.3767 218.227 76.6433 214.315L64.671 213.5ZM85.805 225.422C88.731 228.334 93.46 228.334 96.386 225.422L87.9212 216.916C89.6768 215.169 92.5142 215.169 94.2698 216.916L85.805 225.422ZM77.4644 206.489C74.5184 209.421 74.5184 214.19 77.4644 217.122L85.9292 208.616C87.6968 210.375 87.6968 213.236 85.9292 214.995L77.4644 206.489ZM94.2698 206.695C92.5142 208.442 89.6768 208.442 87.9212 206.695L96.386 198.189C93.46 195.277 88.731 195.277 85.805 198.189L94.2698 206.695ZM104.727 192.816C107.673 189.884 107.673 185.116 104.727 182.184L96.2617 190.69C94.4942 188.931 94.4941 186.069 96.2617 184.31L104.727 192.816ZM85.805 201.117C88.731 204.028 93.46 204.028 96.386 201.117L87.9212 192.611C89.6768 190.864 92.5142 190.864 94.2698 192.611L85.805 201.117ZM77.4644 182.184C74.5184 185.116 74.5184 189.884 77.4644 192.816L85.9292 184.31C87.6968 186.069 87.6968 188.931 85.9292 190.69L77.4644 182.184ZM94.2698 182.389C92.5142 184.136 89.6768 184.136 87.9212 182.389L96.386 173.883C93.46 170.972 88.731 170.972 85.805 173.883L94.2698 182.389ZM104.727 154.622C107.673 151.69 107.673 146.921 104.727 143.989L96.2617 152.495C94.4941 150.736 94.4942 147.875 96.2617 146.116L104.727 154.622ZM85.805 162.922C88.731 165.834 93.46 165.834 96.386 162.922L87.9212 154.416C89.6768 152.669 92.5142 152.669 94.2698 154.416L85.805 162.922ZM77.4644 143.989C74.5184 146.921 74.5184 151.69 77.4644 154.622L85.9292 146.116C87.6968 147.875 87.6968 150.736 85.9292 152.495L77.4644 143.989ZM94.2698 144.195C92.5142 145.942 89.6768 145.942 87.9212 144.195L96.386 135.689C93.46 132.777 88.731 132.777 85.805 135.689L94.2698 144.195ZM45.6603 138.236C43.4955 135.683 40.2508 135.096 37.6614 135.872C35.0051 136.667 32.4577 139.109 32.324 142.746L44.3159 143.186C44.2335 145.43 42.617 146.914 41.1043 147.367C39.6584 147.8 37.77 147.486 36.5069 145.996L45.6603 138.236ZM48.9024 15.7327C51.8484 12.8009 51.8484 8.03243 48.9024 5.1006L40.4376 13.6063C38.67 11.8472 38.67 8.98612 40.4376 7.22703L48.9024 15.7327ZM29.9809 24.0332C32.9069 26.9451 37.6359 26.9451 40.5619 24.0332L32.0971 15.5275C33.8527 13.7803 36.6901 13.7803 38.4457 15.5275L29.9809 24.0332ZM21.6403 5.10059C18.6943 8.03242 18.6943 12.8009 21.6403 15.7327L30.1051 7.22702C31.8727 8.98613 31.8727 11.8472 30.1051 13.6063L21.6403 5.10059ZM38.4457 5.30587C36.6901 7.05301 33.8527 7.05301 32.0971 5.30587L40.5619 -3.19985C37.6359 -6.11175 32.9069 -6.11176 29.9809 -3.19985L38.4457 5.30587ZM44.3154 111.938C44.2325 114.191 42.6076 115.665 41.1146 116.114C39.6909 116.543 37.8199 116.247 36.5517 114.775L45.6413 106.941C43.4626 104.413 40.2289 103.85 37.657 104.623C35.016 105.418 32.4577 107.85 32.3235 111.497L44.3154 111.938ZM-5.8096 117.927C-5.92066 119.92 -5.26216 121.909 -3.83279 123.424C-2.4857 124.853 -0.761499 125.542 0.819068 125.706C3.97815 126.034 7.77629 124.278 8.91257 120.183L-2.65043 116.974C-1.99345 114.607 0.279842 113.586 2.05883 113.771C2.94936 113.863 4.0197 114.261 4.89792 115.192C5.8584 116.211 6.23301 117.496 6.17181 118.595L-5.8096 117.927ZM51.2818 28.6739C50.2505 31.2614 47.8217 31.4932 46.8995 31.3625C46.2996 31.2775 45.4091 30.9958 44.5876 30.1917C43.6389 29.2631 43.0811 27.8986 43.1925 26.4932L55.155 27.4415C55.3369 25.1472 54.4636 23.0668 52.9816 21.6161C51.6267 20.2899 49.9848 19.6799 48.5835 19.4813C46.0583 19.1234 41.8263 19.9867 40.1347 24.2309L51.2818 28.6739ZM61.6067 151.135C63.9396 154.639 67.9097 154.875 70.0317 154.485C72.0449 154.115 76.5441 152.234 76.6002 147.086L64.6009 146.955C64.6178 145.408 65.3808 144.217 66.1508 143.543C66.8305 142.949 67.4852 142.752 67.8627 142.682C68.261 142.609 68.7613 142.601 69.3435 142.775C69.9379 142.953 70.8856 143.419 71.5954 144.485L61.6067 151.135ZM64.6003 181.677C64.6175 180.158 65.3592 178.968 66.1402 178.28C66.8301 177.672 67.5048 177.465 67.9112 177.392C68.3365 177.316 68.8708 177.312 69.4842 177.507C70.1185 177.708 71.0693 178.213 71.754 179.302L61.5967 185.691C63.8626 189.293 67.866 189.592 70.0286 189.204C72.1065 188.832 76.5416 186.923 76.5995 181.813L64.6003 181.677ZM104.727 217.122C107.673 214.19 107.673 209.421 104.727 206.489L96.2617 214.995C94.4941 213.236 94.4942 210.375 96.2617 208.616L104.727 217.122ZM56.5539 45.4529C56.0036 47.4368 54.0815 48.7686 52.0057 48.6649C50.9896 48.6142 49.8137 48.2076 48.8641 47.2455C47.8587 46.2268 47.4964 44.982 47.4962 44.0058L59.4962 44.0037C59.4959 42.1756 58.8499 40.2802 57.4049 38.8161C56.0157 37.4085 54.2441 36.7617 52.604 36.6798C49.2802 36.5139 45.9962 38.6197 44.9905 42.2454L56.5539 45.4529Z" fill="white" mask="url(#path-1-inside-1_182_94)"/>
</svg>
