<svg width="10" height="25" viewBox="0 0 10 25" fill="none" xmlns="http://www.w3.org/2000/svg">
<g id="Logo">
<path d="M5.24587 4.5253C5.23885 4.44607 5.1292 4.44414 5.11298 4.522C4.27814 8.53078 1.0567 8.4091 0.724607 14.3705C1.71863 11.0661 5.58889 8.39919 5.24587 4.5253Z" fill="#FFFFFF"/>
<path d="M4.86718 2.65027C4.86706 2.56702 4.7377 2.55448 4.71571 2.63477C3.75656 6.13662 -0.0255358 7.41237 0.000130004 13.0458C0.00051117 13.1294 0.121184 13.1381 0.138832 13.0563C1.28734 7.73447 4.87404 7.3492 4.86718 2.65027Z" fill="#FFFFFF"/>
<path d="M3.91268 11.4412C3.87267 11.3899 3.78743 11.4164 3.78338 11.4814C3.55633 15.1174 5.94021 13.5867 6.77656 15.6722C6.80611 15.7459 6.932 15.732 6.93604 15.6527C7.12952 11.8538 5.5336 13.522 3.91268 11.4412Z" fill="#FFFFFF"/>
<path d="M2.49198 1.74409C2.46455 1.71674 2.46455 1.67231 2.49198 1.64496L3.42344 0.716042C3.45077 0.688796 3.49498 0.688796 3.5223 0.716042L4.45377 1.64496C4.4812 1.67231 4.4812 1.71674 4.45377 1.74409L3.5223 2.67301C3.49498 2.70026 3.45077 2.70026 3.42344 2.67301L2.49198 1.74409Z" fill="#FFFFFF"/>
<path d="M3.78341 14.5645C3.78746 14.4995 3.8725 14.4731 3.91235 14.5246C5.53356 16.6204 7.12989 15.2568 6.93597 19.0788C6.93195 19.158 6.80671 19.1718 6.77764 19.0979C5.94221 16.9753 3.55601 18.2128 3.78341 14.5645Z" fill="#FFFFFF"/>
<path d="M7.9885 15.4478C7.96108 15.4204 7.96108 15.376 7.9885 15.3487L8.91997 14.4197C8.94729 14.3925 8.99151 14.3925 9.01883 14.4197L9.9503 15.3487C9.97773 15.376 9.97773 15.4204 9.9503 15.4478L9.01883 16.3767C8.99151 16.404 8.94729 16.404 8.91997 16.3767L7.9885 15.4478Z" fill="#FFFFFF"/>
<path d="M7.9885 19.2163C7.96108 19.189 7.96108 19.1445 7.9885 19.1172L8.91997 18.1883C8.94729 18.161 8.99151 18.161 9.01883 18.1883L9.9503 19.1172C9.97773 19.1445 9.97773 19.189 9.9503 19.2163L9.01883 20.1452C8.99151 20.1725 8.94729 20.1725 8.91997 20.1452L7.9885 19.2163Z" fill="#FFFFFF"/>
<path d="M7.9885 21.6145C7.96108 21.5871 7.96108 21.5427 7.9885 21.5153L8.91997 20.5864C8.94729 20.5592 8.99151 20.5592 9.01883 20.5864L9.9503 21.5153C9.97773 21.5427 9.97773 21.5871 9.9503 21.6145L9.01883 22.5434C8.99151 22.5706 8.94729 22.5706 8.91997 22.5434L7.9885 21.6145Z" fill="#FFFFFF"/>
<path d="M6.80003 22.0471C6.83398 22.107 6.92863 22.0872 6.93574 22.0187C7.43788 17.183 2.4159 19.4305 0.724607 14.3705C1.39759 21.4174 5.03693 18.9323 6.80003 22.0471Z" fill="#FFFFFF"/>
<path d="M6.74445 24.8609C6.77997 24.9339 6.92236 24.9138 6.92176 24.8326C6.88411 19.6848 1.01841 22.3665 0.0187397 15.0556C0.0187397 23.4678 5.55056 22.4077 6.74445 24.8609Z" fill="#FFFFFF"/>
</g>
</svg>
